# xmcd CD database file
# Copyright (C) 1993-1998 Ti Kan
#
# Track frame offsets:
#  150
#  14970
#  29127
#  42395
#  56065
#  66977
#  78270
#  94920
#  108702
#  122907
#  136075
#  147487
#
# Disc length: 2082 seconds
#
# Revision: 1
# Processed by: cddbd v1.4b41PL1 Copyright (c) Steve Scherf et al.
# Submitted via: CDWizzard Release:4.35
#
DISCID=bc08200c
DTITLE=Grant Luhrs - You Gotta Laugh!
DYEAR=1900
DGENRE=
TTITLE0=Nude Bootscootin'
TTITLE1=Always Someone Bigger
TTITLE2=It's Hard to be a Cowboy with a Poodle by Your Side
TTITLE3=Pre Shaving Tension (PST)
TTITLE4=Let's Get a Cow
TTITLE5=Off Like a Dog Shot in the Arse
TTITLE6=The Great Australian Yobbo
TTITLE7=Nappy Rash
TTITLE8=I Hate Cats
TTITLE9=It's Hard to be a Poodle with a Cowboy by Your Side
TTITLE10=It's Hard to Write a Song When You're Feeling So Damn Happy
TTITLE11=You Gotta Laugh!
EXTD=Australian Country Music Comedy.\nRecorded at Flying Fox Recording S
EXTD=tudio\nWagga Wagga NSW Australia
EXTT0=Chook Raffle Band
EXTT1=The Chook Raffle Band
EXTT2=The Chook Raffle Band
EXTT3=The Chook Raffle Band
EXTT4=Chook Raffle Band
EXTT5=The Chook Raffle Band
EXTT6=The Chook Raffle Band
EXTT7=The Chook Raffle Band
EXTT8=Chook Raffle Band
EXTT9=The Chook Raffle Band
EXTT10=The Chook Raffle Band
EXTT11=The Chook Raffle Band
PLAYORDER=
